<?xml version="1.0" encoding="UTF-8" standalone="no"?>
<svg id="Layer_1" height="346.26651" viewBox="0 0 285.00001 346.26652" width="285" xmlns="http://www.w3.org/2000/svg">
   <g id="g22" transform="matrix(.25181468 0 0 .25181468 1.7230039 1.7733668)">
      <path id="path4" d="m949.5 548.9c0-.2 0-.2 0 0l-948.2-548h-.2v326.5c0 76 41.7 142.2 103.2 177.3v0l948.2 547.8h.2v-326.6c-.1-75.9-41.6-142-103.2-177z" fill="#1b75bb"/>
      <path id="path6" d="m102.8 724.9c.2 0 .2 0 0 0-55.4-31.8-94.4-88.4-101.7-154.9v482.2l334.4-193z" fill="#1b75bb"/>
      <path id="path10" d="m951.1 328.6c0 0-.2 0 0 0 55.4 31.8 94.4 88.4 101.7 154.8v-482.3l-334.4 193z" fill="#1b75bb"/>
      <path id="path16" d="m241.3 1273.3h92.6v-32.6h-92.6v-40.9h100.9v-35.3h-142.9v191h144.9v-35.3h-103zm116.2-73.5h57.3v155.7h41.9v-155.7h57.3v-35.3h-156.5zm-234.6 92.6h-.6l-79.7-128.1h-41.5v191h39.2v-127.9h.7l79.5 127.9h41.9v-191h-39.2v128.1zm672.1-132.5c-59.2 0-93.8 44.2-93.8 100.9 0 55 34.7 99.2 93.8 99.2 59.2 0 93.8-44 93.8-99.2.1-56.9-34.6-100.9-93.8-100.9zm0 164.6c-37.8 0-51.9-32.2-51.9-63.9 0-33.4 14.1-65.6 51.9-65.6 37.8 0 51.9 32.2 51.9 65.6 0 31.8-14.1 63.9-51.9 63.9zm-167.1-81.5c-47.9-12.2-56.9-14.1-56.9-28.9 0-16 15.6-21.6 28.9-21.6 20.1 0 36.3 5.8 37.8 28.9h40.7c0-44.2-36.5-61.4-76.4-61.4-34.5 0-71.4 18.7-71.4 57.7 0 35.9 28.6 46.7 56.9 54.4 28 7.5 56.7 11 56.7 31.5 0 19.5-22.4 23.9-37.2 23.9-22.4 0-42.3-10-42.3-35.3h-40.7c-.6 47.1 39 67.9 81.4 67.9 51.9 0 79.5-26.2 79.5-61.2-.3-43.7-43-52.4-57-55.9zm331.5-78.7h-41.9v191h134.9v-35.3h-93z"/>
      <path id="path18" d="m1117 1332.8c0 12.7-10 22.4-22.6 22.4-12.7 0-22.8-10-22.8-22.4 0-12.2 10.2-22.2 22.8-22.2 12.8.2 22.6 10 22.6 22.2zm-39.9 0c0 10 7.3 17.6 17.2 17.6 9.8 0 16.8-7.9 16.8-17.6 0-10-7.1-17.9-17-17.9-9.7.3-17 8.2-17 17.9zm13.7 11.7h-5.2v-22.2c2.1-.4 4.8-.6 8.5-.6 4.2 0 6 .6 7.7 1.7 1.2 1 2.1 2.7 2.1 4.8 0 2.5-1.9 4.4-4.6 5.2v.2c2.1.8 3.3 2.5 4.2 5.4.6 3.3 1 4.8 1.7 5.6h-5.6c-.6-.8-1-2.9-1.7-5.4-.4-2.5-1.7-3.5-4.6-3.5h-2.5zm0-12.5h2.5c2.9 0 5.2-1 5.2-3.3 0-2.1-1.5-3.3-4.8-3.3-1.5 0-2.3.2-2.9.2z"/>
   </g>
</svg>
